$MeshFormat
2.2 0 8
$EndMeshFormat
$Nodes
545
1 -4 0 0
2 -3 0 0
3 -3 1 0
4 -4 1 0
5 -3.9 0 0
6 -3.8 0 0
7 -3.700000000000001 0 0
8 -3.600000000000001 0 0
9 -3.5 0 0
10 -3.4 0 0
11 -3.3 0 0
12 -3.2 0 0
13 -3.1 0 0
14 -3.950000000000161 0 0
15 -3.849999999999937 0 0
16 -3.75 0 0
17 -3.649999999999722 0 0
18 -3.549999999999884 0 0
19 -3.449999999999767 0 0
20 -3.349999999999883 0 0
21 -3.250000000000257 0 0
22 -3.149999999999781 0 0
23 -3.05000000000014 0 0
24 -3 0.100000000000416 0
25 -3 0.2000000000008322 0
26 -3 0.3000000000012483 0
27 -3 0.4000000000016644 0
28 -3 0.5000000000020587 0
29 -3 0.6000000000013869 0
30 -3 0.7000000000006934 0
31 -3 0.7999999999999998 0
32 -3 0.8999999999995836 0
33 -3 0.05000000000019991 0
34 -3 0.1500000000006414 0
35 -3 0.2500000000010402 0
36 -3 0.3500000000014563 0
37 -3 0.4500000000018615 0
38 -3 0.5500000000017228 0
39 -3 0.6500000000010402 0
40 -3 0.7500000000003466 0
41 -3 0.8499999999997917 0
42 -3 0.9499999999997918 0
43 -3.1 1 0
44 -3.2 1 0
45 -3.299999999999999 1 0
46 -3.399999999999999 1 0
47 -3.5 1 0
48 -3.6 1 0
49 -3.7 1 0
50 -3.8 1 0
51 -3.9 1 0
52 -3.049999999999839 1 0
53 -3.150000000000063 1 0
54 -3.25 1 0
55 -3.350000000000278 1 0
56 -3.450000000000116 1 0
57 -3.550000000000233 1 0
58 -3.650000000000117 1 0
59 -3.749999999999743 1 0
60 -3.850000000000219 1 0
61 -3.94999999999986 1 0
62 -4 0.8999999999995836 0
63 -4 0.7999999999999998 0
64 -4 0.7000000000006934 0
65 -4 0.6000000000013869 0
66 -4 0.5000000000020587 0
67 -4 0.4000000000016644 0
68 -4 0.3000000000012483 0
69 -4 0.2000000000008322 0
70 -4 0.100000000000416 0
71 -4 0.9499999999998356 0
72 -4 0.8499999999998515 0
73 -4 0.7500000000003858 0
74 -4 0.6500000000010593 0
75 -4 0.5500000000016854 0
76 -4 0.4500000000018616 0
77 -4 0.3500000000014563 0
78 -4 0.2500000000010403 0
79 -4 0.1500000000006241 0
80 -4 0.05000000000020799 0
81 -3.086602540378323 0.4500000000018615 0
82 -3.913397459621645 0.4500000000016875 0
83 -3.550000000000017 0.9133974596215912 0
84 -3.549999999999938 0.08660254037843491 0
85 -3.913397459622056 0.6500000000010724 0
86 -3.086602540377843 0.6500000000010401 0
87 -3.349999999999999 0.08660254037844393 0
88 -3.348546879376197 0.9256437519927589 0
89 -3.913397459620918 0.2500000000014613 0
90 -3.744332542870701 0.9181466939758351 0
91 -3.079592256897199 0.2540211967697376 0
92 -3.744332542870577 0.08185330602436082 0
93 -3.077148050886739 0.849539991209305 0
94 -3.91532279549484 0.8495762630717859 0
95 -3.150593231699349 0.08294974041515292 0
96 -3.913397459621414 0.3500000000017378 0
97 -3.826794919243323 0.4000000000020292 0
98 -3.82679491924365 0.500000000001708 0
99 -3.740192378865461 0.4500000000020794 0
100 -3.740192378865704 0.5500000000016579 0
101 -3.653589838487567 0.5000000000020143 0
102 -3.653969149554686 0.4006569860430879 0
103 -3.567429827687926 0.4507664837163001 0
104 -3.567061053039409 0.5501277472876333 0
105 -3.480470805149515 0.5001490385023657 0
106 -3.479908426180889 0.4024441766014105 0
107 -3.480411391456367 0.6000461309662846 0
108 -3.393800997543963 0.5500325282465044 0
109 -3.566263947211575 0.6487471194940029 0
110 -3.393789786339634 0.650013109870113 0
111 -3.307184068504947 0.6000076063545202 0
112 -3.30718353892862 0.5000066891022736 0
113 -3.307181670395015 0.7000034527054614 0
114 -3.398089315240477 0.7526736610607547 0
115 -3.220577136597375 0.5500000000029377 0
116 -3.220577136597123 0.4500000000034122 0
117 -3.307180320633944 0.4000011148532202 0
118 -3.220577136596795 0.3500000000037978 0
119 -3.307179784251286 0.3000001858119382 0
120 -3.221710121000039 0.2518932482329135 0
121 -3.306284422514736 0.7937824192900141 0
122 -3.220577136597766 0.7500000000021364 0
123 -3.22862211230946 0.8441588101327039 0
124 -3.303238874657767 0.1854021304663338 0
125 -3.390753877230479 0.25724316862979 0
126 -3.826794919242753 0.3000000000021469 0
127 -3.834962912428481 0.1981538064029148 0
128 -3.740095873974217 0.2419865776160675 0
129 -3.915127065470033 0.1502225726782406 0
130 -3.086602540378774 0.3500000000014029 0
131 -3.91339745962172 0.5500000000013827 0
132 -3.826794919243909 0.6000000000014046 0
133 -3.740192378865976 0.6500000000012818 0
134 -3.826794919244145 0.7000000000009265 0
135 -3.738929017805481 0.7577496804439536 0
136 -3.08660254037829 0.5500000000014005 0
137 -3.649055423811779 0.9154574359140968 0
138 -3.602639038147051 0.8345596551619385 0
139 -3.491951416455074 0.8136525083879388 0
140 -3.450000000000039 0.9133974596215703 0
141 -3.449999999999982 0.08452994616236029 0
142 -3.502600010348623 0.1670657104652828 0
143 -3.601138668558715 0.1651131891458313 0
144 -3.560163724290378 0.2512020372938928 0
145 -3.64946085850345 0.08416780831126022 0
146 -3.250638684392858 0.08615021570975925 0
147 -3.220577136597596 0.6500000000025362 0
148 -3.393721050964992 0.4504389245515112 0
149 -3.392244297381709 0.3533225319310159 0
150 -3.084490357345246 0.7499800426566021 0
151 -3.48038475773201 0.7000000000016063 0
152 -3.653481572493036 0.5998124777979854 0
153 -3.652607620241083 0.6956019752143388 0
154 -3.913718348934183 0.7499293771791387 0
155 -3.835126723117154 0.8030554137142168 0
156 -3.740192378865139 0.3500000000027086 0
157 -3.652986048700218 0.3037989637268893 0
158 -3.564863250240461 0.3531127114199677 0
159 -3.841782292645365 0.9060602536602373 0
160 -3.093854343977386 0.1559066101405838 0
161 -3.841730929686173 0.09408375432089494 0
162 -3.153271013075386 0.9109460175146574 0
163 -3.693359835450408 0.1588797767734909 0
164 -3.693347848571873 0.8409592809926122 0
165 -3.574679796798554 0.7445924988504837 0
166 -3.200000000000041 0.1619468829986249 0
167 -3.474722325028667 0.3098076211382256 0
168 -3.407403907658211 0.1671630823935553 0
169 -3.381025551640607 0.8449894529634283 0
170 -3.249999999999996 0.9304476503650707 0
171 -3.153589838487261 0.6000000000015246 0
172 -3.153589838487163 0.7000000000006863 0
173 -3.152949751450294 0.8007708102526818 0
174 -3.153589838487779 0.5000000000024936 0
175 -3.153589838487911 0.4000000000028527 0
176 -3.153589838488678 0.3000000000041487 0
177 -3.926794919243165 0.9267949192430525 0
178 -3.926794919242595 0.07320508075751675 0
179 -3.073205080756817 0.07320508075692421 0
180 -3.072695926455452 0.9273040735444334 0
181 -3.649548830194787 0.2241961089112343 0
182 -3.654232001004529 0.7749937348430779 0
183 -3.149749312072669 0.2247535876292017 0
184 -3.466380014550882 0.2339166839421722 0
185 -3.297207050191344 0.8692652335098099 0
186 -3.770703685002115 0.8451942645573709 0
187 -3.770896418881971 0.1549914442275458 0
188 -3.445020365847776 0.7831630847243467 0
189 -3.486168087093542 0.7568262541947726 0
190 -3.439237036486244 0.7263368305311806 0
191 -3.326619437328883 0.1360023354223889 0
192 -3.300319342196429 0.08637637804410159 0
193 -3.276938779525312 0.1357761730880465 0
194 -3.389557433440542 0.7988315570120915 0
195 -3.436488484047841 0.8293209806756836 0
196 -3.22531934219645 0.1240485493541921 0
197 -3.251619437328904 0.1736745067324794 0
198 -3.533315606626814 0.7791225036192113 0
199 -3.527532277265282 0.722296249426045 0
200 -3.355321391157989 0.1762826064299446 0
201 -3.378701953829105 0.1268828113859996 0
202 -3.875044988949257 0.1741881895405777 0
203 -3.878428997578103 0.1221531634995678 0
204 -3.838346921057327 0.1461187803619049 0
205 -3.875224759305997 0.8263158383930014 0
206 -3.838454507881259 0.854557833687227 0
207 -3.878552544070103 0.8778182583660117 0
208 -3.190946562692423 0.8775524138236807 0
209 -3.190785931879876 0.8224648101926928 0
210 -3.15311038226284 0.8558584138836696 0
211 -3.115209531981063 0.8802430043619812 0
212 -3.115048901168517 0.8251554007309934 0
213 -3.122223787838367 0.1194281752778684 0
214 -3.146927171988713 0.1589267465696044 0
215 -3.175296615849695 0.1224483117068889 0
216 -3.606574886495298 0.2775005005103911 0
217 -3.56251348726542 0.3021573743569302 0
218 -3.60892464947034 0.3284558375734285 0
219 -3.262474497828903 0.2186476893496236 0
220 -3.21085506050004 0.2069200656157692 0
221 -3.806313674284072 0.1245375992742204 0
222 -3.802929665655226 0.1765726253152303 0
223 -3.802915204059634 0.8241248391357938 0
224 -3.80624298882374 0.8756272591088041 0
225 -3.651267439447503 0.2639975363190618 0
226 -3.604856277242583 0.2376990731025636 0
227 -3.121801828025027 0.1903300988848928 0
228 -3.174874656036355 0.1933502353139133 0
229 -3.957563532735016 0.1251112863393283 0
230 -3.957563532735016 0.1751112863395364 0
231 -3.913397459621529 0.4000000000017127 0
232 -3.870096189432369 0.3750000000018835 0
233 -3.870096189432484 0.4250000000018583 0
234 -3.956698729810822 0.4250000000016759 0
235 -3.956698729810822 0.4750000000018731 0
236 -3.043301270189162 0.4750000000019601 0
237 -3.043301270189162 0.425000000001763 0
238 -3.956698729810707 0.3750000000017011 0
239 -3.086602540378549 0.4000000000016322 0
240 -3.043301270189387 0.3750000000015336 0
241 -3.956698729810459 0.2250000000011468 0
242 -3.914262262545475 0.200111286339851 0
243 -3.870096189431835 0.2750000000018041 0
244 -3.874180186024699 0.2240769032021881 0
245 -3.830878915835617 0.2490769032025309 0
246 -3.913397459621166 0.3000000000015995 0
247 -3.870096189432084 0.3250000000019424 0
248 -3.913397459621682 0.5000000000015351 0
249 -3.95669872981086 0.5250000000017208 0
250 -3.783493649054677 0.525000000001683 0
251 -3.783493649054806 0.5750000000015313 0
252 -3.826794919243779 0.5500000000015564 0
253 -3.043301270189145 0.5250000000017296 0
254 -3.086602540378307 0.500000000001631 0
255 -3.870096189432685 0.5250000000015453 0
256 -3.870096189432815 0.5750000000013937 0
257 -3.956698729811028 0.6250000000012297 0
258 -3.95669872981086 0.5750000000013848 0
259 -3.913397459621888 0.6000000000012276 0
260 -3.78349364905506 0.6750000000011042 0
261 -3.739560698335728 0.7038748402226177 0
262 -3.782861968524813 0.7288748402224401 0
263 -3.043301270189145 0.5750000000013937 0
264 -3.039796128448599 0.2770105983854929 0
265 -3.043301270189387 0.3250000000013256 0
266 -3.083097398637986 0.3020105983855702 0
267 -3.956698729810459 0.2750000000013548 0
268 -3.956698729810707 0.325000000001493 0
269 -3.043301270188921 0.6250000000012135 0
270 -3.086602540378067 0.6000000000012202 0
271 -3.783493649054942 0.6250000000013431 0
272 -3.826794919244027 0.6500000000011656 0
273 -3.826794919243486 0.4500000000018686 0
274 -3.870096189432647 0.4750000000016977 0
275 -3.787529393201349 0.2200701920094911 0
276 -3.783445396608485 0.2709932888091072 0
277 -3.74019237886584 0.6000000000014698 0
278 -3.72216627143535 0.9590733469879176 0
279 -3.69669398334124 0.916802064944966 0
280 -3.674527711905889 0.9577287179570484 0
281 -3.49999999999996 0.08556624327039761 0
282 -3.476300005174302 0.1257978283138216 0
283 -3.52630000517428 0.1268341254218589 0
284 -3.870096189432982 0.6250000000012386 0
285 -3.524999999999969 0.04330127018921746 0
286 -3.474999999999991 0.04226497308118014 0
287 -3.374273439688098 0.9628218759963795 0
288 -3.425000000000019 0.9566987298107852 0
289 -3.399273439688118 0.9195206058071645 0
290 -3.624730429251725 0.04208390415563011 0
291 -3.674730429251725 0.04208390415563011 0
292 -3.722166271435289 0.04092665301218041 0
293 -3.696896700687013 0.08301055716781053 0
294 -3.520975708227545 0.863524984004765 0
295 -3.470975708227557 0.8635249840047545 0
296 -3.500000000000028 0.9133974596215808 0
297 -3.599527711905898 0.914427447767844 0
298 -3.625847230979415 0.8750085455380177 0
299 -3.576319519073534 0.8739785573917649 0
300 -3.772166271435351 0.9590733469879176 0
301 -3.826794919243038 0.3500000000020881 0
302 -3.039796128448599 0.2270105983852849 0
303 -3.575000000000008 0.9566987298107956 0
304 -3.624527711905889 0.9577287179570484 0
305 -3.375 0.04330127018922197 0
306 -3.399999999999991 0.0855662432704021 0
307 -3.424999999999991 0.04226497308118014 0
308 -3.95766139774742 0.8247881315358929 0
309 -3.95766139774742 0.8747881315356847 0
310 -3.525000000000008 0.9566987298107956 0
311 -3.475000000000019 0.9566987298107852 0
312 -3.324273439688098 0.9628218759963795 0
313 -3.551869339453669 0.1660894498055571 0
314 -3.5313818673195 0.2091338738795878 0
315 -3.580651196424546 0.2081576132198621 0
316 -3.263880602551161 0.575003803178729 0
317 -3.220577136597486 0.600000000002737 0
318 -3.263880602551272 0.6250038031785282 0
319 -3.574999999999969 0.04330127018921746 0
320 -3.547295227301063 0.8241060817749386 0
321 -3.325 0.04330127018922197 0
322 -3.575569334279326 0.1258578647621331 0
323 -3.350492533024455 0.5750200673005124 0
324 -3.350492268236291 0.525019608674389 0
325 -3.307183803716784 0.550007147728397 0
326 -3.783493649054392 0.4250000000020543 0
327 -3.783493649054555 0.4750000000018937 0
328 -3.305209329454526 0.242701158139136 0
329 -3.348966830740883 0.2786216772208641 0
330 -3.346996375944123 0.2213226495480619 0
331 -3.393761024254478 0.5002357263990078 0
332 -3.350452294946806 0.4752228068268924 0
333 -3.263880337762997 0.5250033445526057 0
334 -3.03857402544337 0.8747699956044444 0
335 -3.03857402544337 0.8247699956046524 0
336 -3.26387940349639 0.7250017263537989 0
337 -3.263879403496306 0.6750017263539988 0
338 -3.220577136597681 0.7000000000023363 0
339 -3.599730429251694 0.08538517434484758 0
340 -3.306733046454876 0.7468929359977378 0
341 -3.263430779556251 0.7718912096460753 0
342 -3.393795391941798 0.6000228190583087 0
343 -3.350486927422291 0.6250103581123165 0
344 -3.275319342196429 0.04307510785487963 0
345 -3.307182869449981 0.6500055295299908 0
346 -3.480441098302941 0.5500975847343251 0
347 -3.437135901346739 0.525090783374435 0
348 -3.437106194500165 0.5750393296063945 0
349 -3.914520572214512 0.7997528201254622 0
350 -3.874422536025668 0.7764923954466778 0
351 -3.437095928057254 0.4752939815269385 0
352 -3.349712040816498 0.3266613588714771 0
353 -3.391499087306094 0.3052828502804029 0
354 -3.307181929781282 0.4500039019777469 0
355 -3.350450685799468 0.4252200197023657 0
356 -3.225319342196429 0.04307510785487963 0
357 -3.224599624453613 0.7970794050674201 0
358 -3.267453267412098 0.818970614711359 0
359 -3.870096189433101 0.6750000000009995 0
360 -3.740192378865582 0.5000000000018687 0
361 -3.696891108676514 0.4750000000020468 0
362 -3.696891108676635 0.5250000000018361 0
363 -3.523950316418721 0.4754577611093329 0
364 -3.523669126934408 0.4266053301588553 0
365 -3.480189615665202 0.4512966075518881 0
366 -3.350485728367325 0.6750082812877871 0
367 -3.567245440363668 0.5004471155019667 0
368 -3.523765929094462 0.5251383928949995 0
369 -3.175296615849675 0.04147487020757646 0
370 -3.200615958046104 0.08454997806245609 0
371 -3.696836975679506 0.6249062388996336 0
372 -3.65304459636706 0.6477072265061621 0
373 -3.696399999553529 0.6728009876078103 0
374 -3.653779494021126 0.4503284930225511 0
375 -3.610699488621306 0.425711734879694 0
376 -3.610509833087747 0.4753832418591572 0
377 -3.437100588898001 0.6250296204181988 0
378 -3.263880337762871 0.4750033445528429 0
379 -3.220577136597249 0.500000000003175 0
380 -3.697080764210074 0.4253284930225836 0
381 -3.610325445763488 0.5250638736448238 0
382 -3.436814738572941 0.4264415505764608 0
383 -3.609872759852306 0.6242797986459941 0
384 -3.609435783726329 0.6721745473541708 0
385 -3.772166271435289 0.04092665301218041 0
386 -3.523736222247888 0.5750869391269589 0
387 -3.264444952625663 0.2759467170224258 0
388 -3.125296615849675 0.04147487020757646 0
389 -3.956698729811028 0.6750000000008829 0
390 -3.39298267417335 0.4018807282412636 0
391 -3.349712309007827 0.3766618233921181 0
392 -3.307180052442615 0.3500006503325792 0
393 -3.436076361781299 0.3778833542662132 0
394 -3.625299763531082 0.1246404987285458 0
395 -3.956859174467092 0.7749646885895692 0
396 -3.352635492817746 0.726338556883108 0
397 -3.352186868877606 0.7732280401753844 0
398 -3.740144126419678 0.295993288809388 0
399 -3.783493649053946 0.3250000000024278 0
400 -3.523337669333971 0.6243966252301437 0
401 -3.566662500125492 0.5994374333908181 0
402 -3.263878728615533 0.4250005574283162 0
403 -3.69683697567937 0.5749062388998216 0
404 -3.395939550790055 0.7013433854654338 0
405 -3.043301270188921 0.6750000000008667 0
406 -3.653535705490301 0.5499062388999998 0
407 -3.080819204115993 0.7997600169329535 0
408 -3.042245178672623 0.774990021328301 0
409 -3.263878728615369 0.375000557428509 0
410 -3.26387846042404 0.325000092907868 0
411 -3.042245178672623 0.7249900213286478 0
412 -3.437087272035822 0.6750065549358597 0
413 -3.480398074594189 0.6500230654839454 0
414 -3.870256634089164 0.7249646885900326 0
415 -3.830960821180649 0.7515277068575716 0
416 -3.523324352471793 0.6743735597478047 0
417 -3.221143628798417 0.3009466241183557 0
418 -3.695768319023282 0.7266758278291462 0
419 -3.956859174467092 0.724964688589916 0
420 -3.913557904278119 0.6999646885901055 0
421 -3.610271312766223 0.5749701125428093 0
422 -3.220577136596959 0.400000000003605 0
423 -3.783493649054231 0.3750000000023689 0
424 -3.7401923788653 0.400000000002394 0
425 -3.085546448861545 0.699990021328821 0
426 -3.787027870461317 0.7804025470790852 0
427 -3.697080764209913 0.3753284930228982 0
428 -3.696540961337218 0.2728927706714784 0
429 -3.696589213782679 0.3268994818647989 0
430 -3.653477599127452 0.3522279748849886 0
431 -3.343654987077672 0.8193859361267213 0
432 -3.30174573635304 0.8315238263999121 0
433 -3.339116300915975 0.8571273432366191 0
434 -3.588659417472802 0.7895760770062111 0
435 -3.566146538964194 0.4019395975681339 0
436 -3.522385838210675 0.3777784440106891 0
437 -3.609416199897574 0.3768848487315278 0
438 -3.519792787634564 0.3314601662790967 0
439 -3.477315375604778 0.356125898869818 0
440 -3.870891146322682 0.9530301268301187 0
441 -3.820891146322682 0.9530301268301187 0
442 -3.046927171988693 0.177953305070708 0
443 -3.046927171988693 0.1279533050704999 0
444 -3.820865464843087 0.04704187716044747 0
445 -3.870865464843087 0.04704187716044747 0
446 -3.364786215508402 0.8853166024780936 0
447 -3.322876964783771 0.8974544927512844 0
448 -3.647249252004562 0.1619964829596611 0
449 -3.671410346976929 0.1215237925423755 0
450 -3.671201636191826 0.8782083584533544 0
451 -3.647993443359462 0.8377594680772753 0
452 -3.625343749376751 0.1946546490285328 0
453 -3.570471872005065 0.6966698091722433 0
454 -3.613643708519819 0.7200972370324112 0
455 -3.517443024659523 0.2805048292160592 0
456 -3.433483311205188 0.3315650765346208 0
457 -3.432738101129573 0.2835253948840078 0
458 -3.428701953829096 0.1258465142779578 0
459 -3.455001959003416 0.1671143964294191 0
460 -3.399078892444345 0.2122031255116726 0
461 -3.415512775820323 0.8791934562924992 0
462 -3.793057417758033 0.9121034738180362 0
463 -3.086723300437292 0.2049639034551607 0
464 -3.793031736278375 0.08796853017262787 0
465 -3.299273439688096 0.9280457011789148 0
466 -3.274999999999998 0.9652238251825354 0
467 -3.176635506537693 0.9554730087573287 0
468 -3.126635506537693 0.9554730087573287 0
469 -3.718846189160493 0.1203665413989258 0
470 -3.718840195721287 0.8795529874842236 0
471 -3.201635506537691 0.920696833939864 0
472 -3.239311056154728 0.8873032302488872 0
473 -3.963397459621298 0.03660254037875837 0
474 -3.963397459621298 0.08660254037896636 0
475 -3.913397459621298 0.03660254037875837 0
476 -3.963397459621582 0.913397459621318 0
477 -3.963397459621582 0.9633974596215262 0
478 -3.913397459621582 0.9633974596215262 0
479 -3.036602540378408 0.0866025403786701 0
480 -3.036602540378408 0.0366025403784621 0
481 -3.086602540378408 0.0366025403784621 0
482 -3.036347963227726 0.9636520367722168 0
483 -3.036347963227726 0.9136520367720085 0
484 -3.086347963227726 0.9636520367722168 0
485 -3.224999999999998 0.9652238251825354 0
486 -3.436891961104546 0.2005398831678638 0
487 -3.484490012449752 0.2004911972037275 0
488 -3.755496146428094 0.1984890109218067 0
489 -3.754816351403798 0.8014719725006623 0
490 -3.614455898901542 0.7597931168467809 0
491 -3.653419810622806 0.7352978550287084 0
492 -3.757518113936408 0.881670479266603 0
493 -3.757614480876274 0.1184223751259533 0
494 -3.120096189433117 0.4250000000023572 0
495 -3.120096189433343 0.3750000000021278 0
496 -3.187083487542318 0.5750000000022312 0
497 -3.187083487542577 0.5250000000027156 0
498 -3.15358983848752 0.5500000000020091 0
499 -3.18676344402403 0.7753854051274092 0
500 -3.187083487542379 0.6750000000016112 0
501 -3.187083487542464 0.7250000000014114 0
502 -3.187083487542429 0.6250000000020304 0
503 -3.120096189433726 0.3250000000027758 0
504 -3.116591047692938 0.2770105983869432 0
505 -3.153269794968728 0.7503854051266841 0
506 -3.187083487542451 0.4750000000029529 0
507 -3.153589838487212 0.6500000000011055 0
508 -3.120096189432775 0.5750000000014626 0
509 -3.120096189433035 0.525000000001947 0
510 -3.120096189432553 0.6250000000012823 0
511 -3.153589838488295 0.3500000000035007 0
512 -3.11872005439777 0.775375426454642 0
513 -3.120096189433051 0.4750000000021776 0
514 -3.119040097916204 0.7249900213286442 0
515 -3.120096189432503 0.6750000000008631 0
516 -3.187083487542353 0.3750000000033253 0
517 -3.187083487542517 0.4250000000031325 0
518 -3.187083487542736 0.3250000000039733 0
519 -3.187649979744358 0.2759466241185311 0
520 -3.153589838487845 0.4500000000026732 0
521 -3.716727854712313 0.2004331771947792 0
522 -3.73212812716619 0.1569356105005183 0
523 -3.716138433188677 0.7993544807182829 0
524 -3.732025766786994 0.8430767727749915 0
525 -3.428566945890681 0.2455799262859811 0
526 -3.696580509405005 0.7663717076435157 0
527 -3.694822352084502 0.2330913432636509 0
528 -3.62843551957579 0.8047766950025081 0
529 -3.114670784484934 0.2393873921994697 0
530 -3.51327186942063 0.2425593606180325 0
531 -3.083529712367101 0.114555845448754 0
532 -3.884288605944265 0.9164275864516449 0
533 -3.884262924464385 0.08364441753920585 0
534 -3.074921988671096 0.8884220323768692 0
535 -3.920960992356314 0.1117138267178787 0
536 -3.921058857369003 0.8881855911574192 0
537 -3.111899156228083 0.07807741058603856 0
538 -3.27360352509567 0.8998564419374403 0
539 -3.671454332822598 0.1915379428423626 0
540 -3.673789924788201 0.807976507917845 0
541 -3.470551169789775 0.2718621525401989 0
542 -3.262914581250402 0.8567120218212569 0
543 -3.112983469765419 0.9191250455295454 0
544 -3.185729716536354 0.2383234179310576 0
545 -3.151669575280673 0.2623767938166752 0
$EndNodes
$Elements
296
1 15 2 1 1 1
2 15 2 2 2 2
3 15 2 3 3 3
4 15 2 4 4 4
5 8 2 1 1 1 5 14
6 8 2 1 1 5 6 15
7 8 2 1 1 6 7 16
8 8 2 1 1 7 8 17
9 8 2 1 1 8 9 18
10 8 2 1 1 9 10 19
11 8 2 1 1 10 11 20
12 8 2 1 1 11 12 21
13 8 2 1 1 12 13 22
14 8 2 1 1 13 2 23
15 8 2 2 2 2 24 33
16 8 2 2 2 24 25 34
17 8 2 2 2 25 26 35
18 8 2 2 2 26 27 36
19 8 2 2 2 27 28 37
20 8 2 2 2 28 29 38
21 8 2 2 2 29 30 39
22 8 2 2 2 30 31 40
23 8 2 2 2 31 32 41
24 8 2 2 2 32 3 42
25 8 2 3 3 3 43 52
26 8 2 3 3 43 44 53
27 8 2 3 3 44 45 54
28 8 2 3 3 45 46 55
29 8 2 3 3 46 47 56
30 8 2 3 3 47 48 57
31 8 2 3 3 48 49 58
32 8 2 3 3 49 50 59
33 8 2 3 3 50 51 60
34 8 2 3 3 51 4 61
35 8 2 4 4 4 62 71
36 8 2 4 4 62 63 72
37 8 2 4 4 63 64 73
38 8 2 4 4 64 65 74
39 8 2 4 4 65 66 75
40 8 2 4 4 66 67 76
41 8 2 4 4 67 68 77
42 8 2 4 4 68 69 78
43 8 2 4 4 69 70 79
44 8 2 4 4 70 1 80
45 9 2 1 1 114 139 151 188 189 190
46 9 2 1 1 124 87 146 191 192 193
47 9 2 1 1 139 114 169 188 194 195
48 9 2 1 1 124 146 166 193 196 197
49 9 2 1 1 151 139 165 189 198 199
50 9 2 1 1 87 124 168 191 200 201
51 9 2 1 1 127 129 161 202 203 204
52 9 2 1 1 94 155 159 205 206 207
53 9 2 1 1 162 123 173 208 209 210
54 9 2 1 1 93 162 173 211 210 212
55 9 2 1 1 95 160 166 213 214 215
56 9 2 1 1 157 144 158 216 217 218
57 9 2 1 1 120 124 166 219 197 220
58 9 2 1 1 127 161 187 204 221 222
59 9 2 1 1 159 155 186 206 223 224
60 9 2 1 1 144 157 181 216 225 226
61 9 2 1 1 166 160 183 214 227 228
62 9 2 1 1 69 70 129 79 229 230
63 9 2 1 1 82 96 97 231 232 233
64 9 2 1 1 66 67 82 76 234 235
65 9 2 1 1 27 28 81 37 236 237
66 9 2 1 1 82 67 96 234 238 231
67 9 2 1 1 27 81 130 237 239 240
68 9 2 1 1 89 69 129 241 230 242
69 9 2 1 1 126 89 127 243 244 245
70 9 2 1 1 96 89 126 246 243 247
71 9 2 1 1 66 82 131 235 248 249
72 9 2 1 1 98 100 132 250 251 252
73 9 2 1 1 81 28 136 236 253 254
74 9 2 1 1 131 98 132 255 252 256
75 9 2 1 1 85 65 131 257 258 259
76 9 2 1 1 65 66 131 75 249 258
77 9 2 1 1 134 133 135 260 261 262
78 9 2 1 1 28 29 136 38 263 253
79 9 2 1 1 91 26 130 264 265 266
80 9 2 1 1 68 89 96 267 246 268
81 9 2 1 1 29 86 136 269 270 263
82 9 2 1 1 132 133 134 271 260 272
83 9 2 1 1 67 68 96 77 268 238
84 9 2 1 1 82 97 98 233 273 274
85 9 2 1 1 26 27 130 36 240 265
86 9 2 1 1 126 127 128 245 275 276
87 9 2 1 1 132 100 133 251 277 271
88 9 2 1 1 82 98 131 274 255 248
89 9 2 1 1 49 90 137 278 279 280
90 9 2 1 1 84 141 142 281 282 283
91 9 2 1 1 85 131 132 259 256 284
92 9 2 1 1 84 9 141 285 286 281
93 9 2 1 1 88 46 140 287 288 289
94 9 2 1 1 7 8 145 17 290 291
95 9 2 1 1 92 7 145 292 291 293
96 9 2 1 1 83 139 140 294 295 296
97 9 2 1 1 83 137 138 297 298 299
98 9 2 1 1 49 50 90 59 300 278
99 9 2 1 1 97 96 126 232 247 301
100 9 2 1 1 25 26 91 35 264 302
101 9 2 1 1 83 48 137 303 304 297
102 9 2 1 1 10 87 141 305 306 307
103 9 2 1 1 62 63 94 72 308 309
104 9 2 1 1 47 83 140 310 296 311
105 9 2 1 1 45 46 88 55 287 312
106 9 2 1 1 143 142 144 313 314 315
107 9 2 1 1 111 115 147 316 317 318
108 9 2 1 1 8 9 84 18 285 319
109 9 2 1 1 83 138 139 299 320 294
110 9 2 1 1 10 11 87 20 321 305
111 9 2 1 1 68 69 89 78 241 267
112 9 2 1 1 84 142 143 283 313 322
113 9 2 1 1 111 108 112 323 324 325
114 9 2 1 1 47 48 83 57 303 310
115 9 2 1 1 48 49 137 58 280 304
116 9 2 1 1 98 97 99 273 326 327
117 9 2 1 1 124 119 125 328 329 330
118 9 2 1 1 9 10 141 19 307 286
119 9 2 1 1 46 47 140 56 311 288
120 9 2 1 1 112 108 148 324 331 332
121 9 2 1 1 111 112 115 325 333 316
122 9 2 1 1 31 32 93 41 334 335
123 9 2 1 1 122 113 147 336 337 338
124 9 2 1 1 8 84 145 319 339 290
125 9 2 1 1 121 113 122 340 336 341
126 9 2 1 1 110 108 111 342 323 343
127 9 2 1 1 87 11 146 321 344 192
128 9 2 1 1 113 111 147 345 318 337
129 9 2 1 1 107 105 108 346 347 348
130 9 2 1 1 94 154 155 349 350 205
131 9 2 1 1 108 105 148 347 351 331
132 9 2 1 1 127 89 129 244 242 202
133 9 2 1 1 125 119 149 329 352 353
134 9 2 1 1 117 112 148 354 332 355
135 9 2 1 1 11 12 146 21 356 344
136 9 2 1 1 121 122 123 341 357 358
137 9 2 1 1 85 132 134 284 272 359
138 9 2 1 1 100 99 101 360 361 362
139 9 2 1 1 105 103 106 363 364 365
140 9 2 1 1 110 111 113 343 345 366
141 9 2 1 1 104 103 105 367 363 368
142 9 2 1 1 12 95 146 369 370 356
143 9 2 1 1 133 152 153 371 372 373
144 9 2 1 1 101 102 103 374 375 376
145 9 2 1 1 107 108 110 348 342 377
146 9 2 1 1 115 112 116 333 378 379
147 9 2 1 1 98 99 100 327 360 250
148 9 2 1 1 101 99 102 361 380 374
149 9 2 1 1 101 103 104 376 367 381
150 9 2 1 1 105 106 148 365 382 351
151 9 2 1 1 152 109 153 383 384 372
152 9 2 1 1 6 7 92 16 292 385
153 9 2 1 1 104 105 107 368 346 386
154 9 2 1 1 120 119 124 387 328 219
155 9 2 1 1 12 13 95 22 388 369
156 9 2 1 1 64 65 85 74 257 389
157 9 2 1 1 117 148 149 355 390 391
158 9 2 1 1 119 117 149 392 391 352
159 9 2 1 1 148 106 149 382 393 390
160 9 2 1 1 84 143 145 322 394 339
161 9 2 1 1 94 63 154 308 395 349
162 9 2 1 1 114 113 121 396 340 397
163 9 2 1 1 126 128 156 276 398 399
164 9 2 1 1 104 107 109 386 400 401
165 9 2 1 1 116 112 117 378 354 402
166 9 2 1 1 133 100 152 277 403 371
167 9 2 1 1 110 113 114 366 396 404
168 9 2 1 1 29 30 86 39 405 269
169 9 2 1 1 100 101 152 362 406 403
170 9 2 1 1 31 93 150 335 407 408
171 9 2 1 1 118 117 119 409 392 410
172 9 2 1 1 30 31 150 40 408 411
173 9 2 1 1 107 110 151 377 412 413
174 9 2 1 1 154 134 155 414 415 350
175 9 2 1 1 109 107 151 400 413 416
176 9 2 1 1 118 119 120 410 387 417
177 9 2 1 1 135 133 153 261 373 418
178 9 2 1 1 110 114 151 404 190 412
179 9 2 1 1 63 64 154 73 419 395
180 9 2 1 1 64 85 154 389 420 419
181 9 2 1 1 101 104 152 381 421 406
182 9 2 1 1 104 109 152 401 383 421
183 9 2 1 1 116 117 118 402 409 422
184 9 2 1 1 99 97 156 326 423 424
185 9 2 1 1 85 134 154 359 414 420
186 9 2 1 1 86 30 150 405 411 425
187 9 2 1 1 97 126 156 301 399 423
188 9 2 1 1 134 135 155 262 426 415
189 9 2 1 1 102 99 156 380 424 427
190 9 2 1 1 156 128 157 398 428 429
191 9 2 1 1 102 156 157 427 429 430
192 9 2 1 1 169 121 185 431 432 433
193 9 2 1 1 139 138 165 320 434 198
194 9 2 1 1 106 103 158 364 435 436
195 9 2 1 1 102 157 158 430 218 437
196 9 2 1 1 106 158 167 436 438 439
197 9 2 1 1 50 51 159 60 440 441
198 9 2 1 1 24 25 160 34 442 443
199 9 2 1 1 5 6 161 15 444 445
200 9 2 1 1 88 169 185 446 433 447
201 9 2 1 1 145 143 163 394 448 449
202 9 2 1 1 138 137 164 298 450 451
203 9 2 1 1 143 144 181 315 226 452
204 9 2 1 1 153 109 165 384 453 454
205 9 2 1 1 158 144 167 217 455 438
206 9 2 1 1 103 102 158 375 437 435
207 9 2 1 1 125 149 167 353 456 457
208 9 2 1 1 142 141 168 282 458 459
209 9 2 1 1 124 125 168 330 460 200
210 9 2 1 1 140 139 169 295 195 461
211 9 2 1 1 114 121 169 397 431 194
212 9 2 1 1 90 50 159 300 441 462
213 9 2 1 1 25 91 160 302 463 442
214 9 2 1 1 6 92 161 385 464 444
215 9 2 1 1 45 88 170 312 465 466
216 9 2 1 1 43 44 162 53 467 468
217 9 2 1 1 92 145 163 293 449 469
218 9 2 1 1 137 90 164 279 470 450
219 9 2 1 1 123 162 170 208 471 472
220 9 2 1 1 70 1 178 80 473 474
221 9 2 1 1 1 5 178 14 475 473
222 9 2 1 1 4 62 177 71 476 477
223 9 2 1 1 51 4 177 61 477 478
224 9 2 1 1 2 24 179 33 479 480
225 9 2 1 1 13 2 179 23 480 481
226 9 2 1 1 109 151 165 416 199 453
227 9 2 1 1 32 3 180 42 482 483
228 9 2 1 1 3 43 180 52 484 482
229 9 2 1 1 162 44 170 467 485 471
230 9 2 1 1 146 95 166 370 215 196
231 9 2 1 1 149 106 167 393 439 456
232 9 2 1 1 142 168 184 459 486 487
233 9 2 1 1 141 87 168 306 201 458
234 9 2 1 1 88 140 169 289 461 446
235 9 2 1 1 128 127 187 275 222 488
236 9 2 1 1 155 135 186 426 489 223
237 9 2 1 1 153 165 182 454 490 491
238 9 2 1 1 90 159 186 462 224 492
239 9 2 1 1 161 92 187 464 493 221
240 9 2 1 1 44 45 170 54 466 485
241 9 2 1 1 130 81 175 239 494 495
242 9 2 1 1 171 115 174 496 497 498
243 9 2 1 1 123 122 173 357 499 209
244 9 2 1 1 122 147 172 338 500 501
245 9 2 1 1 147 115 171 317 496 502
246 9 2 1 1 91 130 176 266 503 504
247 9 2 1 1 122 172 173 501 505 499
248 9 2 1 1 115 116 174 379 506 497
249 9 2 1 1 147 171 172 502 507 500
250 9 2 1 1 136 171 174 508 498 509
251 9 2 1 1 136 86 171 270 510 508
252 9 2 1 1 130 175 176 495 511 503
253 9 2 1 1 150 93 173 407 212 512
254 9 2 1 1 81 136 174 254 509 513
255 9 2 1 1 86 150 172 425 514 515
256 9 2 1 1 172 150 173 514 512 505
257 9 2 1 1 171 86 172 510 515 507
258 9 2 1 1 116 118 175 422 516 517
259 9 2 1 1 175 118 176 516 518 511
260 9 2 1 1 118 120 176 417 519 518
261 9 2 1 1 81 174 175 513 520 494
262 9 2 1 1 174 116 175 506 517 520
263 9 2 1 1 163 128 187 521 488 522
264 9 2 1 1 135 164 186 523 524 489
265 9 2 1 1 168 125 184 460 525 486
266 9 2 1 1 135 153 182 418 491 526
267 9 2 1 1 157 128 181 428 527 225
268 9 2 1 1 165 138 182 434 528 490
269 9 2 1 1 160 91 183 463 529 227
270 9 2 1 1 144 142 184 314 487 530
271 9 2 1 1 24 160 179 443 531 479
272 9 2 1 1 159 51 177 440 478 532
273 9 2 1 1 5 161 178 445 533 475
274 9 2 1 1 93 32 180 334 483 534
275 9 2 1 1 129 70 178 229 474 535
276 9 2 1 1 62 94 177 309 536 476
277 9 2 1 1 95 13 179 388 481 537
278 9 2 1 1 170 88 185 465 447 538
279 9 2 1 1 163 143 181 448 452 539
280 9 2 1 1 138 164 182 451 540 528
281 9 2 1 1 125 167 184 457 541 525
282 9 2 1 1 128 163 181 521 539 527
283 9 2 1 1 164 135 182 523 526 540
284 9 2 1 1 121 123 185 358 542 432
285 9 2 1 1 94 159 177 207 532 536
286 9 2 1 1 160 95 179 213 537 531
287 9 2 1 1 161 129 178 203 535 533
288 9 2 1 1 162 93 180 211 534 543
289 9 2 1 1 43 162 180 468 543 484
290 9 2 1 1 167 144 184 455 530 541
291 9 2 1 1 92 163 187 469 522 493
292 9 2 1 1 164 90 186 470 492 524
293 9 2 1 1 120 166 183 220 228 544
294 9 2 1 1 91 176 183 504 545 529
295 9 2 1 1 176 120 183 519 544 545
296 9 2 1 1 123 170 185 472 538 542
$EndElements
$Periodic
3
0 2 1
1
2 1
0 3 4
1
3 4
1 2 4
11
2 1
3 4
24 70
25 69
26 68
27 67
28 66
29 65
30 64
31 63
32 62
$EndPeriodic
